name C:\Users\Nicos\Documents\OpenSimProjects\SprintingProject\Study1\PredictiveResults\IC_pred_Sprinting_optimum_28-October-2023__10-02-52___HTD_Plus_6_p02_maxVel_01.mot
datacolumns 38
datarows 7
range 0.16162843 0.16857857
endheader
                time	/jointset/ground_pelvis/pelvis_tilt/value	/jointset/ground_pelvis/pelvis_list/value	/jointset/ground_pelvis/pelvis_rotation/value	/jointset/ground_pelvis/pelvis_tx/value	/jointset/ground_pelvis/pelvis_ty/value	/jointset/ground_pelvis/pelvis_tz/value	/jointset/hip_r/hip_flexion_r/value	/jointset/hip_r/hip_adduction_r/value	/jointset/hip_r/hip_rotation_r/value	/jointset/knee_r/knee_angle_r/value	/jointset/ankle_r/ankle_angle_r/value	/jointset/subtalar_r/subtalar_angle_r/value	/jointset/mtp_r/mtp_angle_r/value	/jointset/hip_l/hip_flexion_l/value	/jointset/hip_l/hip_adduction_l/value	/jointset/hip_l/hip_rotation_l/value	/jointset/knee_l/knee_angle_l/value	/jointset/ankle_l/ankle_angle_l/value	/jointset/subtalar_l/subtalar_angle_l/value	/jointset/mtp_l/mtp_angle_l/value	/jointset/back/lumbar_extension/value	/jointset/back/lumbar_bending/value	/jointset/back/lumbar_rotation/value	/jointset/acromial_r/arm_flex_r/value	/jointset/acromial_r/arm_add_r/value	/jointset/acromial_r/arm_rot_r/value	/jointset/elbow_r/elbow_flex_r/value	/jointset/radioulnar_r/pro_sup_r/value	/jointset/radius_hand_r/wrist_flex_r/value	/jointset/radius_hand_r/wrist_dev_r/value	/jointset/acromial_l/arm_flex_l/value	/jointset/acromial_l/arm_add_l/value	/jointset/acromial_l/arm_rot_l/value	/jointset/elbow_l/elbow_flex_l/value	/jointset/radioulnar_l/pro_sup_l/value	/jointset/radius_hand_l/wrist_flex_l/value	/jointset/radius_hand_l/wrist_dev_l/value	
          0.16162843	         -8.59140378	          5.28904154	        -15.90560469	          1.25063674	          0.95222352	          0.30363632	         -8.30446797	        -13.83951370	          2.77694762	        -40.78698610	        -25.89202605	        -13.32944217	        -10.32174485	         81.59653279	         -6.34456227	         -5.04820421	       -132.46031275	         -4.97138732	        -26.43697248	         15.58423595	         -6.36269023	         -0.97446214	         11.01948478	         81.46753505	        -12.83812302	         -0.09340520	        130.19631784	         65.35913033	        -23.21382634	          7.92412396	        -74.90305860	        -25.93151591	         -6.42491773	         64.53922255	         80.41345161	        -30.95390085	          6.63849635	
          0.16228354	         -8.61793908	          5.31661382	        -15.93080688	          1.25839671	          0.95227285	          0.30370494	         -8.35432731	        -13.93183656	          2.81776146	        -41.18190258	        -26.12760985	        -13.47272975	        -10.22235217	         81.83892855	         -6.43367679	         -5.03917987	       -132.00737887	         -5.12699968	        -26.36777030	         15.59925154	         -6.31714003	         -1.01189150	         11.03544690	         81.55016879	        -12.59512466	         -0.05455760	        130.63170556	         65.39677906	        -23.11167158	          7.90394575	        -74.93274273	        -25.86258521	         -5.99383422	         63.98188746	         80.14962801	        -30.92228202	          6.67180072	
          0.16435343	         -8.71058502	          5.40221816	        -16.00592497	          1.28284718	          0.95244215	          0.30395487	         -8.47363877	        -14.19553391	          2.98764294	        -42.47877305	        -26.72905498	        -13.92631034	         -9.80620910	         82.57076729	         -6.72752492	         -5.01278866	       -130.52726557	         -5.64273437	        -26.13549414	         15.63568231	         -6.17224477	         -1.13826336	         11.07357833	         81.74007655	        -11.82910173	         -0.00000207	        132.02785049	         65.56682719	        -22.78889135	          7.84014854	        -74.98855731	        -25.59874811	         -4.67475701	         62.24665588	         79.30416419	        -30.81110930	          6.78135549	
          0.16585357	         -8.78507411	          5.46317686	        -16.05531906	          1.30050293	          0.95257952	          0.30416481	         -8.52504548	        -14.36125158	          3.14822878	        -43.46263496	        -27.07539478	        -14.21143918	         -9.42348503	         83.06721818	         -6.95009287	         -4.99712723	       -129.40730704	         -6.04028163	        -25.95500732	         15.65244519	         -6.06709740	         -1.23820254	         11.08964183	         81.81090617	        -11.28237150	         -0.01560987	        133.05162791	         65.73845366	        -22.55497234	          7.79392233	        -75.00000000	        -25.36367475	         -3.77945114	         61.02829477	         78.68001701	        -30.72016909	          6.86670953	
          0.16585357	         -8.78507411	          5.46317686	        -16.05531906	          1.30050293	          0.95257952	          0.30416481	         -8.52504548	        -14.36125158	          3.14822878	        -43.46263496	        -27.07539478	        -14.21143918	         -9.42348503	         83.06721818	         -6.95009287	         -4.99712723	       -129.40730704	         -6.04028163	        -25.95500732	         15.65244519	         -6.06709740	         -1.23820254	         11.08964183	         81.81090617	        -11.28237150	         -0.01560987	        133.05162791	         65.73845366	        -22.55497234	          7.79392233	        -75.00000000	        -25.36367475	         -3.77945114	         61.02829477	         78.68001701	        -30.72016909	          6.86670953	
          0.16650868	         -8.81917514	          5.48959394	        -16.07533160	          1.30819622	          0.95264398	          0.30426336	         -8.53873850	        -14.42725520	          3.22771920	        -43.90316465	        -27.21386461	        -14.31410380	         -9.23903501	         83.27451923	         -7.04922551	         -4.99160021	       -128.90560185	         -6.22029626	        -25.87318496	         15.65760663	         -6.02145473	         -1.28421680	         11.09360666	         81.82439981	        -11.04750628	         -0.03458120	        133.49985539	         65.82606842	        -22.45281826	          7.77373074	        -74.99915986	        -25.24978702	         -3.40869723	         60.51079249	         78.40152360	        -30.67783725	          6.90655075	
          0.16857857	         -8.92972765	          5.57159377	        -16.13141833	          1.33243727	          0.95287044	          0.30459886	         -8.55182867	        -14.61130293	          3.51359670	        -45.33472532	        -27.64131694	        -14.50903125	         -8.60275270	         83.88680734	         -7.36761516	         -4.98058390	       -127.27010800	         -6.81221630	        -25.60080957	         15.66539123	         -5.88213373	         -1.43913825	         11.09360659	         81.79999630	        -10.33154878	         -0.11965047	        134.91210918	         66.15112088	        -22.13003953	          7.70991454	        -74.98129675	        -24.84220963	         -2.34902147	         58.94815355	         77.51994753	        -30.53380950	          7.03564079	
